<svg fill="none" height="53" viewBox="0 0 140 53" width="140" xmlns="http://www.w3.org/2000/svg"><g fill="#fefefe"><path d="m.301569 42.9405 5.503641-1.5014v-28.7521c0-1.3013-.10052-2.1521-.30157-2.5524-.20105-.45047-.72879-.85084-1.58324-1.20117l-3.9204-2.25213.376961-6.6813h24.200939l.3016 7.65722-5.4283 1.50142v29.27766c0 1.2011.0754 1.9768.2262 2.3272.201.3503.6785.7006 1.4325 1.0509l3.845 2.3272-.2262 6.4561h-24.050169z"/><path d="m39.935 51.5737c-3.4178 0-6.1571-.9259-8.2178-2.7777-2.0607-1.9018-3.0911-4.329-3.0911-7.2818 0-3.9538 1.9853-7.0567 5.956-9.3088 4.0209-2.2521 9.8513-3.5283 17.491-3.8286 0-2.3522-.201-4.0789-.6031-5.1799-.3518-1.1511-1.0304-1.9268-2.0356-2.3272-.955-.4504-2.4377-.6756-4.4482-.6756-2.0607 0-3.5183.075-4.3727.2252l-3.0911 6.0807-5.579-.3754c-.8545-4.0037-1.4576-8.1576-1.8094-12.4617 2.8146-.9509 5.8806-1.7016 9.1978-2.2521 3.3675-.5506 6.5089-.8258 9.4241-.8258 5.3277 0 9.1476 1.051 11.4596 3.153 2.312 2.0519 3.468 5.4801 3.468 10.2847v15.6898c0 .9008.0754 1.5264.2262 1.8767.2011.3504.6032.7007 1.2063 1.051l3.0157 1.7267-.3016 4.6543c-5.8303 1.3513-10.4293 2.102-13.7968 2.2522-.1005-.3003-.2513-.8258-.4523-1.5765-.2011-.8008-.377-1.5515-.5278-2.2521-1.9602 1.2511-4.1214 2.2521-6.4837 3.0028-2.312.7507-4.5236 1.1261-6.6345 1.1261zm5.0512-8.483c2.0105 0 4.4482-.6757 7.3131-2.027l-.3016-5.7053c-1.2062-.1001-2.0104-.1502-2.4125-.1502-1.3571 0-2.9403.1502-4.7497.4504-1.8095.2503-3.2419.5506-4.2974.9009-.1508.6506-.2262 1.2512-.2262 1.8017 0 1.5014.4021 2.6775 1.2063 3.5283.8544.8008 2.0105 1.2012 3.468 1.2012z"/><path d="m70.824 43.3909 4.6743-1.3512v-18.1672c0-1.101-.0753-1.8017-.2261-2.102-.1508-.3503-.5529-.7256-1.2063-1.126l-3.3173-1.8017.2262-5.6303 1.6586-.3003c6.5843-1.3012 11.334-2.0019 14.2492-2.102.4021 1.051.7288 2.2021.9801 3.4533 3.0659-1.4014 5.5539-2.3523 7.4638-2.8527 1.9602-.5506 3.7948-.8258 5.5035-.8258 7.992 0 11.988 4.7545 11.988 14.2634v14.7139c0 1.051.075 1.7517.226 2.102s.578.7257 1.281 1.1261l3.619 2.102-.301 5.6303h-20.8086l-.377-7.1318 3.6946-1.051v-14.1883c0-2.2522-.076-3.8287-.2265-4.7295-.1508-.9009-.5781-1.6015-1.2817-2.102-.6534-.5005-1.8346-.7507-3.5434-.7507-1.8095 0-4.0964.2753-6.8608.8258v18.1671c0 1.051.0754 1.7517.2262 2.102s.5529.7257 1.2063 1.1261l3.6942 2.102-.3015 5.6303h-21.8638z"/><path d="m124.695 41.8144 12.214-3.228 3.091 11.1856-12.138 3.228z"/></g></svg>