<svg width="703" height="450" viewBox="0 0 703 450" fill="none" xmlns="http://www.w3.org/2000/svg">
<path d="M269.2 225C269.2 207.327 254.873 193 237.2 193C219.527 193 205.2 207.327 205.2 225C205.2 242.673 219.527 257 237.2 257C254.873 257 269.2 242.673 269.2 225Z" fill="#1A1A1A"/>
<path d="M471.6 193.1L418.3 193.1C400.6 193.1 386.3 207.4 386.3 225.1L386.3 257.1L471.5 257.1C489.2 257.1 503.5 242.8 503.5 225.1C503.5 207.4 489.3 193.1 471.6 193.1Z" fill="#1A1A1A"/>
<path d="M475 102.1C473.9 102.1 472.8 102.1 471.7 102.2L471.5 102.2C470.9 102.1 470.3 102.1 469.7 102.1L416.4 102.1C380.5 102.1 348.2 117.6 325.8 142.2C305.9 163.9 293.8 192.9 293.8 224.7C293.8 257.1 267.5 283.3 235.2 283.3C202.8 283.3 176.6 257.1 176.6 224.7C176.6 192.4 202.8 166.1 235.2 166.1C252.8 166.1 267.2 151.8 267.2 134.1L267.2 102.1L235.2 102.1C167.5 102.1 112.7 157 112.7 224.6C112.7 292.2 167.6 347.1 235.2 347.1C271.1 347.1 303.4 331.6 325.8 307C345.7 285.3 357.8 256.3 357.8 224.5C357.8 192.2 384 165.9 416.4 165.9L475 165.9C476 165.9 477 165.9 478 166C509 167.6 533.6 193.2 533.6 224.6C533.6 257 507.3 283.2 475 283.2L416.4 283.2C398.8 283.2 384.4 297.5 384.4 315.2L384.4 347.2L469.6 347.2C470.2 347.2 470.8 347.2 471.4 347.1C472.6 347.2 473.7 347.2 474.9 347.2C542.6 347.2 597.4 292.3 597.4 224.7C597.4 157.1 542.6 102.1 475 102.1Z" fill="#1A1A1A"/>
<path d="M671.046 450H408.301C408.1 450 408 449.9 408 449.7V428.995C408 411.191 422.424 396.788 440.255 396.788H622.864C631.679 396.788 638.891 389.587 638.891 380.785V370.682V86.6193V69.3155C638.891 60.5136 631.679 53.312 622.864 53.312H434.745C419.219 53.312 406.798 40.109 408.2 24.3055C409.402 10.3024 422.124 6.60842e-05 436.148 6.60842e-05H703V85.219V364.781V418.093C703 435.697 688.676 450 671.046 450Z" fill="#1A1A1A"/>
<path d="M31.9542 7.52138e-06L294.699 3.04913e-05C294.9 3.05088e-05 295 0.100056 295 0.3001L295 21.0047C295 38.8087 280.576 53.2118 262.745 53.2118L80.1358 53.2118C71.3209 53.2118 64.1087 60.4134 64.1087 69.2154L64.1087 79.3176L64.1086 363.381L64.1086 380.685C64.1086 389.487 71.3208 396.688 80.1358 396.688L268.255 396.688C283.781 396.688 296.202 409.891 294.8 425.695C293.598 439.698 280.876 450 266.852 450L-3.06302e-05 450L-2.31801e-05 364.781L1.26e-06 85.2189L5.92067e-06 31.9071C7.45965e-06 14.3032 14.3243 5.98013e-06 31.9542 7.52138e-06Z" fill="#1A1A1A"/>
</svg>
